<?xml version="1.0" encoding="utf-8"?>
<!-- Generator: Adobe Illustrator 25.1.0, SVG Export Plug-In . SVG Version: 6.00 Build 0)  -->
<svg version="1.1" id="Layer_1" xmlns="http://www.w3.org/2000/svg" preserveAspectRatio="none" xmlns:xlink="http://www.w3.org/1999/xlink" x="0px" y="0px"
	 viewBox="0 0 500 1000" style="enable-background:new 0 0 500 1000;" xml:space="preserve">
<style type="text/css">
	.st0{fill:#FBFAF1;}
	.st1{fill:#D3B494;}
</style>
<rect class="st0" width="498.78" height="1000"/>
<polygon class="st1" points="363,12.6 363,14.973 486.374,14.973 486.374,984.627 363,984.627 363,987 487.8,987 487.8,12.6 "/>
<circle class="st1" cx="141.709" cy="14.031" r="1.431"/>
<path class="st1" d="M146.231,12.6c-0.79,0-1.431,0.641-1.431,1.431c0,0.79,0.641,1.431,1.431,1.431c0.79,0,1.431-0.641,1.431-1.431
	C147.662,13.241,147.022,12.6,146.231,12.6z"/>
<path class="st1" d="M346.124,13.031h-35.576l-35.083-3.037c-0.167-0.014-0.339,0.014-0.494,0.083l-6.397,2.858l-6.396-2.858
	c-0.26-0.116-0.557-0.116-0.816,0l-6.61,2.954h-2.691c-0.448-1.743-2.02-3.04-3.901-3.04s-3.452,1.297-3.9,3.04h-2.691l-6.61-2.954
	c-0.26-0.116-0.557-0.116-0.816,0l-6.396,2.858l-6.397-2.858c-0.155-0.069-0.326-0.097-0.494-0.083l-35.083,3.037h-35.576
	c-0.552,0-1,0.448-1,1c0,0.552,0.448,1,1,1h35.576l35.083,3.037c0.029,0.002,0.058,0.004,0.086,0.004
	c0.14,0,0.279-0.029,0.408-0.087l6.397-2.858l6.396,2.858c0.13,0.058,0.269,0.087,0.408,0.087c0.139,0,0.278-0.029,0.408-0.087
	l6.61-2.954h2.691c0.448,1.743,2.019,3.04,3.9,3.04s3.452-1.297,3.901-3.04h2.691l6.61,2.954c0.13,0.058,0.269,0.087,0.408,0.087
	c0.139,0,0.278-0.029,0.408-0.087l6.396-2.858l6.397,2.858c0.128,0.058,0.268,0.087,0.408,0.087c0.029,0,0.058-0.001,0.087-0.004
	l35.083-3.037h35.576c0.552,0,1-0.448,1-1C347.124,13.479,346.676,13.031,346.124,13.031z M220.77,16.053l-23.36-2.022l23.36-2.022
	l4.525,2.022L220.77,16.053z M234.55,15.976l-4.353-1.945l4.353-1.945l4.354,1.945L234.55,15.976z M248.159,16.072
	c-1.125,0-2.04-0.915-2.04-2.04s0.915-2.04,2.04-2.04c1.126,0,2.041,0.915,2.041,2.04S249.285,16.072,248.159,16.072z
	 M261.769,15.976l-4.354-1.945l4.354-1.945l4.353,1.945L261.769,15.976z M275.55,16.053l-4.525-2.022l4.525-2.022l23.36,2.022
	L275.55,16.053z"/>
<circle class="st1" cx="354.61" cy="14.031" r="1.431"/>
<circle class="st1" cx="350.088" cy="14.031" r="1.431"/>
<circle class="st1" cx="145.591" cy="985.569" r="1.431"/>
<path class="st1" d="M150.113,984.138c-0.79,0-1.431,0.641-1.431,1.431s0.641,1.431,1.431,1.431c0.79,0,1.431-0.641,1.431-1.431
	S150.903,984.138,150.113,984.138z"/>
<path class="st1" d="M350.005,984.569h-35.576l-35.083-3.036c-0.167-0.016-0.339,0.014-0.494,0.083l-6.397,2.858l-6.397-2.858
	c-0.259-0.115-0.557-0.115-0.815,0l-6.61,2.953h-2.691c-0.448-1.742-2.02-3.04-3.901-3.04s-3.452,1.297-3.9,3.04h-2.691l-6.61-2.953
	c-0.259-0.115-0.557-0.115-0.815,0l-6.396,2.858l-6.397-2.858c-0.155-0.069-0.326-0.099-0.494-0.083l-35.083,3.036h-35.576
	c-0.552,0-1,0.447-1,1c0,0.553,0.448,1,1,1h35.576l35.083,3.037c0.029,0.003,0.058,0.004,0.086,0.004
	c0.14,0,0.279-0.029,0.408-0.087l6.396-2.859l6.396,2.859c0.13,0.058,0.269,0.087,0.408,0.087c0.139,0,0.278-0.029,0.408-0.087
	l6.61-2.954h2.691c0.448,1.743,2.019,3.041,3.9,3.041s3.452-1.298,3.901-3.041h2.69l6.61,2.954c0.13,0.058,0.269,0.087,0.408,0.087
	c0.139,0,0.278-0.029,0.408-0.087l6.396-2.859l6.396,2.859c0.129,0.058,0.268,0.087,0.408,0.087c0.029,0,0.058-0.001,0.087-0.004
	l35.083-3.037h35.576c0.552,0,1-0.447,1-1C351.005,985.016,350.557,984.569,350.005,984.569z M224.651,987.591l-23.36-2.023
	l23.36-2.021l4.525,2.021L224.651,987.591z M238.431,987.514l-4.353-1.945l4.353-1.944l4.354,1.944L238.431,987.514z
	 M252.041,987.61c-1.125,0-2.04-0.916-2.04-2.041s0.915-2.04,2.04-2.04c1.126,0,2.041,0.915,2.041,2.04
	S253.166,987.61,252.041,987.61z M265.65,987.514l-4.354-1.945l4.354-1.944l4.353,1.944L265.65,987.514z M279.431,987.591
	l-4.525-2.023l4.525-2.021l23.36,2.021L279.431,987.591z"/>
<circle class="st1" cx="358.491" cy="985.569" r="1.431"/>
<circle class="st1" cx="353.969" cy="985.569" r="1.431"/>
<path class="st1" d="M441.852,30.741c-0.422,0.08-0.753,0.254-0.906,0.476l-7.702,11.173c-0.199,0.289-0.062,0.613,0.352,0.83
	c0.288,0.151,0.674,0.232,1.068,0.232c0.172,0,0.346-0.015,0.514-0.047l21.289-4.042c0.422-0.08,0.753-0.254,0.906-0.476
	l7.575-10.99c3.701-1.819,9.524-1.786,13.135,0.109c1.373,0.721,2.129,1.679,2.128,2.697c-0.001,1.018-0.756,1.974-2.128,2.694
	c-1.037,0.544-2.417,0.844-3.888,0.844c-0.001,0-0.002,0-0.003,0c-1.473,0-2.858-0.302-3.901-0.849
	c-1.596-0.838-1.591-2.203,0.01-3.043c1.13-0.593,3.085-0.593,4.214,0c0.814,0.427,0.814,1.122,0,1.549
	c-0.59,0.31-0.59,0.811,0,1.121c0.59,0.31,1.545,0.31,2.135,0c0.967-0.507,1.497-1.181,1.496-1.898
	c-0.001-0.715-0.533-1.387-1.496-1.893c-2.268-1.191-6.217-1.191-8.485,0c-2.779,1.458-2.783,3.829-0.01,5.284
	c1.612,0.846,3.755,1.313,6.034,1.313c0.002,0,0.004,0,0.005,0c2.277,0,4.416-0.465,6.024-1.309
	c1.941-1.019,3.011-2.373,3.013-3.814c0.001-1.442-1.068-2.799-3.013-3.819c-3.341-1.754-8.122-2.302-12.365-1.645
	c1.251-2.226,0.206-4.736-3.135-6.49c-4.007-2.103-10.532-2.104-14.542,0c-1.609,0.844-2.495,1.968-2.494,3.164
	c0.001,1.196,0.891,2.321,2.503,3.167c1.342,0.705,3.127,1.092,5.026,1.092c0.001,0,0.004,0,0.006,0
	c1.901-0.001,3.689-0.39,5.036-1.097c2.339-1.228,2.339-3.226,0-4.453c-0.963-0.505-2.243-0.784-3.606-0.785
	c-0.002,0-0.004,0-0.007,0c-1.363,0-2.645,0.279-3.61,0.785c-0.59,0.31-0.59,0.811,0,1.121c0.59,0.31,1.545,0.31,2.135,0
	c0.814-0.427,2.138-0.427,2.952,0c1.162,0.61,1.162,1.602,0,2.212c-1.601,0.841-4.201,0.842-5.797,0.005
	c-1.042-0.547-1.617-1.274-1.618-2.047c-0.001-0.772,0.571-1.498,1.609-2.043c2.831-1.486,7.439-1.487,10.272,0
	c3.611,1.895,3.673,4.953,0.206,6.894L441.852,30.741z M454.774,37.999l-17.594,3.341l6.365-9.234l17.595-3.341L454.774,37.999z"/>
<g>
	<polygon class="st1" points="135.8,987 14.2,987 14.2,12.6 135.8,12.6 135.8,14.973 15.59,14.973 15.59,984.627 135.8,984.627 	"/>
</g>
<path class="st1" d="M38.65,27.981c-3.467-1.942-3.404-4.999,0.206-6.894c2.833-1.487,7.441-1.486,10.272,0
	c1.038,0.545,1.61,1.27,1.609,2.043c-0.002,0.773-0.576,1.5-1.618,2.047c-1.596,0.838-4.197,0.836-5.797-0.005
	c-1.162-0.61-1.162-1.602,0-2.212c0.814-0.427,2.138-0.427,2.952,0c0.59,0.31,1.545,0.31,2.135,0c0.59-0.31,0.59-0.811,0-1.121
	c-0.964-0.506-2.247-0.785-3.61-0.785c-0.002,0-0.005,0-0.007,0c-1.363,0.001-2.643,0.28-3.606,0.785
	c-2.339,1.228-2.339,3.226,0,4.453c1.346,0.707,3.135,1.096,5.036,1.097c0.002,0,0.005,0,0.006,0c1.899,0,3.684-0.388,5.026-1.092
	c1.612-0.846,2.502-1.971,2.503-3.167c0.001-1.196-0.884-2.32-2.494-3.164c-4.01-2.104-10.535-2.103-14.542,0
	c-3.342,1.754-4.386,4.263-3.135,6.49c-4.242-0.657-9.024-0.108-12.365,1.645c-1.944,1.02-3.014,2.376-3.013,3.819
	c0.002,1.441,1.071,2.795,3.013,3.814c1.607,0.844,3.746,1.309,6.024,1.309c0.001,0,0.003,0,0.005,0
	c2.279-0.001,4.422-0.467,6.034-1.313c2.774-1.455,2.769-3.826-0.01-5.284c-2.268-1.191-6.217-1.191-8.485,0
	c-0.963,0.505-1.495,1.177-1.496,1.893c-0.002,0.717,0.529,1.391,1.496,1.898c0.59,0.31,1.545,0.31,2.135,0
	c0.59-0.31,0.59-0.811,0-1.121c-0.814-0.427-0.814-1.122,0-1.549c1.13-0.593,3.085-0.593,4.214,0
	c1.601,0.841,1.605,2.205,0.01,3.043c-1.042,0.547-2.428,0.849-3.901,0.849c-0.001,0-0.002,0-0.003,0
	c-1.471,0-2.851-0.3-3.888-0.844c-1.371-0.72-2.127-1.676-2.128-2.694c-0.001-1.018,0.755-1.976,2.128-2.697
	c3.61-1.895,9.434-1.928,13.135-0.109l7.575,10.99c0.153,0.221,0.484,0.395,0.906,0.476l21.289,4.042
	c0.168,0.032,0.341,0.047,0.514,0.047c0.394,0,0.779-0.081,1.068-0.232c0.414-0.218,0.551-0.541,0.352-0.83l-7.702-11.173
	c-0.153-0.221-0.484-0.396-0.906-0.476L38.65,27.981z M40.3,29.98l17.595,3.341l6.365,9.234l-17.594-3.341L40.3,29.98z"/>
<path class="st1" d="M60.449,963.88c0.422-0.08,0.753-0.254,0.906-0.476l7.702-11.173c0.199-0.289,0.062-0.612-0.352-0.83
	c-0.288-0.151-0.674-0.232-1.068-0.232c-0.172,0-0.346,0.015-0.514,0.047l-21.289,4.042c-0.422,0.08-0.753,0.254-0.906,0.476
	l-7.575,10.99c-3.701,1.819-9.524,1.786-13.135-0.109c-1.373-0.721-2.129-1.679-2.128-2.697c0.001-1.018,0.756-1.974,2.128-2.694
	c1.037-0.544,2.417-0.844,3.888-0.844c0.001,0,0.002,0,0.003,0c1.473,0,2.858,0.302,3.901,0.849c1.596,0.838,1.591,2.203-0.01,3.043
	c-1.13,0.593-3.085,0.593-4.214,0c-0.814-0.427-0.814-1.122,0-1.549c0.59-0.31,0.59-0.811,0-1.121c-0.59-0.31-1.545-0.31-2.135,0
	c-0.967,0.507-1.497,1.181-1.496,1.898c0.001,0.715,0.533,1.387,1.496,1.893c2.268,1.191,6.217,1.191,8.485,0
	c2.779-1.458,2.783-3.829,0.01-5.284c-1.612-0.846-3.755-1.313-6.034-1.313c-0.002,0-0.004,0-0.005,0
	c-2.277,0-4.416,0.465-6.024,1.309c-1.941,1.019-3.011,2.373-3.013,3.814c-0.002,1.442,1.068,2.799,3.013,3.819
	c3.341,1.754,8.122,2.302,12.365,1.645c-1.251,2.227-0.206,4.736,3.135,6.49c4.007,2.103,10.532,2.104,14.542,0
	c1.609-0.844,2.495-1.969,2.494-3.164c-0.002-1.196-0.891-2.321-2.503-3.167c-1.342-0.705-3.127-1.092-5.026-1.092
	c-0.001,0-0.004,0-0.006,0c-1.901,0.001-3.689,0.39-5.036,1.097c-2.339,1.228-2.339,3.226,0,4.453
	c0.963,0.505,2.243,0.784,3.606,0.785c0.002,0,0.004,0,0.007,0c1.363,0,2.645-0.279,3.61-0.785c0.59-0.31,0.59-0.811,0-1.121
	c-0.59-0.31-1.545-0.31-2.135,0c-0.814,0.427-2.138,0.427-2.952,0c-1.162-0.61-1.162-1.602,0-2.212
	c1.601-0.841,4.201-0.842,5.797-0.005c1.042,0.547,1.617,1.274,1.618,2.047c0.001,0.772-0.571,1.498-1.609,2.043
	c-2.831,1.486-7.439,1.487-10.272,0c-3.611-1.895-3.673-4.953-0.206-6.894L60.449,963.88z M47.527,956.622l17.594-3.341
	l-6.365,9.234l-17.595,3.341L47.527,956.622z"/>
<path class="st1" d="M462.79,969.403c3.467,1.942,3.404,4.999-0.206,6.894c-2.833,1.487-7.441,1.486-10.272,0
	c-1.038-0.545-1.61-1.27-1.609-2.043c0.002-0.773,0.576-1.5,1.618-2.047c1.596-0.838,4.197-0.836,5.797,0.005
	c1.162,0.61,1.162,1.602,0,2.212c-0.814,0.427-2.138,0.427-2.952,0c-0.59-0.31-1.545-0.31-2.135,0c-0.59,0.31-0.59,0.811,0,1.121
	c0.964,0.506,2.247,0.785,3.61,0.785c0.002,0,0.005,0,0.007,0c1.363-0.001,2.643-0.28,3.606-0.785c2.339-1.228,2.339-3.226,0-4.453
	c-1.346-0.707-3.135-1.096-5.036-1.097c-0.002,0-0.005,0-0.006,0c-1.899,0-3.684,0.388-5.026,1.092
	c-1.612,0.846-2.502,1.971-2.503,3.167c-0.001,1.196,0.884,2.32,2.494,3.164c4.01,2.104,10.535,2.104,14.542,0
	c3.342-1.754,4.386-4.263,3.135-6.49c4.242,0.657,9.024,0.108,12.365-1.645c1.944-1.02,3.014-2.376,3.013-3.818
	c-0.002-1.441-1.071-2.795-3.013-3.814c-1.607-0.844-3.746-1.309-6.024-1.309c-0.001,0-0.003,0-0.005,0
	c-2.279,0.001-4.422,0.467-6.034,1.313c-2.774,1.455-2.769,3.826,0.01,5.284c2.268,1.191,6.217,1.191,8.485,0
	c0.963-0.505,1.495-1.177,1.496-1.893c0.002-0.717-0.529-1.391-1.496-1.898c-0.59-0.31-1.545-0.31-2.135,0
	c-0.59,0.31-0.59,0.811,0,1.121c0.814,0.427,0.814,1.122,0,1.549c-1.13,0.593-3.085,0.593-4.214,0
	c-1.601-0.841-1.605-2.205-0.01-3.043c1.042-0.547,2.428-0.849,3.901-0.849c0.001,0,0.002,0,0.003,0c1.471,0,2.851,0.3,3.888,0.844
	c1.371,0.72,2.127,1.676,2.128,2.694c0.001,1.018-0.755,1.976-2.128,2.697c-3.61,1.895-9.434,1.928-13.135,0.109l-7.575-10.99
	c-0.153-0.221-0.484-0.395-0.906-0.476l-21.289-4.042c-0.168-0.032-0.341-0.047-0.514-0.047c-0.394,0-0.779,0.081-1.068,0.232
	c-0.414,0.218-0.551,0.541-0.352,0.83l7.702,11.173c0.153,0.221,0.484,0.396,0.906,0.476L462.79,969.403z M461.139,967.404
	l-17.595-3.341l-6.365-9.234l17.594,3.341L461.139,967.404z"/>
</svg>
