<?xml version="1.0" encoding="utf-8"?>
<!-- Generator: Adobe Illustrator 25.1.0, SVG Export Plug-In . SVG Version: 6.00 Build 0)  -->
<svg version="1.1" id="Layer_1" xmlns="http://www.w3.org/2000/svg" preserveAspectRatio="none" xmlns:xlink="http://www.w3.org/1999/xlink" x="0px" y="0px"
	 viewBox="0 0 623.622 870.236" style="enable-background:new 0 0 623.622 870.236;" xml:space="preserve">
<style type="text/css">
	.st0{fill:#FBFAF1;}
	.st1{fill:#D3B494;}
	.st2{fill:none;}
</style>
<g>
	<rect class="st0" width="623.622" height="870.236"/>
	<g>
		<polygon class="st1" points="424.133,24.513 424.133,26.513 597.113,26.513 597.113,843.723 424.133,843.723 424.133,845.723 
			599.113,845.723 599.113,24.513 		"/>
		<circle class="st1" cx="205.361" cy="25.512" r="1.431"/>
		<path class="st1" d="M209.883,24.081c-0.79,0-1.431,0.641-1.431,1.431c0,0.79,0.641,1.431,1.431,1.431
			c0.79,0,1.431-0.641,1.431-1.431C211.314,24.721,210.673,24.081,209.883,24.081z"/>
		<path class="st1" d="M409.775,24.512h-35.576l-35.083-3.037c-0.167-0.014-0.339,0.014-0.494,0.083l-6.397,2.858l-6.397-2.858
			c-0.26-0.116-0.557-0.116-0.816,0l-6.61,2.954h-2.691c-0.448-1.743-2.02-3.04-3.901-3.04c-1.881,0-3.452,1.297-3.9,3.04h-2.691
			l-6.61-2.954c-0.26-0.116-0.557-0.116-0.816,0l-6.396,2.858L285,21.558c-0.155-0.069-0.326-0.097-0.494-0.083l-35.083,3.037
			h-35.576c-0.552,0-1,0.448-1,1c0,0.552,0.448,1,1,1h35.576l35.083,3.037c0.029,0.002,0.058,0.004,0.086,0.004
			c0.14,0,0.279-0.029,0.408-0.087l6.397-2.858l6.396,2.858c0.13,0.058,0.269,0.087,0.408,0.087c0.139,0,0.278-0.029,0.408-0.087
			l6.61-2.954h2.691c0.448,1.743,2.019,3.041,3.9,3.041c1.881,0,3.452-1.298,3.901-3.041h2.691l6.61,2.954
			c0.13,0.058,0.269,0.087,0.408,0.087c0.139,0,0.278-0.029,0.408-0.087l6.397-2.858l6.397,2.858
			c0.128,0.058,0.268,0.087,0.408,0.087c0.029,0,0.058-0.001,0.086-0.004l35.083-3.037h35.576c0.552,0,1-0.448,1-1
			C410.775,24.959,410.328,24.512,409.775,24.512z M284.421,27.534l-23.36-2.022l23.36-2.022l4.525,2.022L284.421,27.534z
			 M298.202,27.457l-4.353-1.945l4.353-1.945l4.353,1.945L298.202,27.457z M311.811,27.552c-1.125,0-2.041-0.916-2.041-2.041
			s0.916-2.04,2.041-2.04c1.125,0,2.041,0.915,2.041,2.04S312.936,27.552,311.811,27.552z M325.42,27.457l-4.353-1.945l4.353-1.945
			l4.354,1.945L325.42,27.457z M339.201,27.534l-4.525-2.022l4.525-2.022l23.36,2.022L339.201,27.534z"/>
		<circle class="st1" cx="418.261" cy="25.512" r="1.431"/>
		<circle class="st1" cx="413.739" cy="25.512" r="1.431"/>
		<circle class="st1" cx="205.361" cy="844.723" r="1.431"/>
		<path class="st1" d="M209.883,843.292c-0.79,0-1.431,0.641-1.431,1.431s0.641,1.431,1.431,1.431c0.79,0,1.431-0.641,1.431-1.431
			S210.673,843.292,209.883,843.292z"/>
		<path class="st1" d="M409.775,843.723h-35.577l-35.083-3.036c-0.167-0.016-0.339,0.014-0.494,0.083l-6.397,2.858l-6.397-2.858
			c-0.259-0.115-0.557-0.115-0.815,0l-6.61,2.953h-2.691c-0.448-1.743-2.02-3.04-3.901-3.04c-1.881,0-3.452,1.297-3.9,3.04h-2.691
			l-6.61-2.953c-0.259-0.115-0.557-0.115-0.815,0l-6.396,2.858L285,840.77c-0.155-0.069-0.326-0.099-0.494-0.083l-35.083,3.036
			h-35.577c-0.552,0-1,0.447-1,1c0,0.553,0.448,1,1,1h35.576l35.083,3.037c0.029,0.003,0.058,0.004,0.086,0.004
			c0.14,0,0.279-0.029,0.408-0.087l6.397-2.859l6.396,2.859c0.13,0.058,0.269,0.087,0.408,0.087c0.139,0,0.278-0.029,0.408-0.087
			l6.61-2.954h2.691c0.448,1.743,2.019,3.041,3.9,3.041c1.881,0,3.452-1.298,3.901-3.041h2.69l6.61,2.954
			c0.13,0.058,0.269,0.087,0.408,0.087c0.139,0,0.278-0.029,0.408-0.087l6.397-2.859l6.396,2.859
			c0.129,0.058,0.268,0.087,0.408,0.087c0.029,0,0.058-0.001,0.086-0.004l35.083-3.037h35.576c0.552,0,1-0.447,1-1
			C410.775,844.17,410.328,843.723,409.775,843.723z M284.421,846.745l-23.36-2.022l23.36-2.022l4.525,2.022L284.421,846.745z
			 M298.202,846.668l-4.353-1.945l4.353-1.944l4.353,1.944L298.202,846.668z M311.811,846.764c-1.125,0-2.041-0.916-2.041-2.041
			s0.916-2.04,2.041-2.04c1.125,0,2.041,0.915,2.041,2.04S312.936,846.764,311.811,846.764z M325.42,846.668l-4.353-1.945
			l4.353-1.944l4.354,1.944L325.42,846.668z M339.202,846.745l-4.525-2.022l4.525-2.022l23.36,2.022L339.202,846.745z"/>
		<circle class="st1" cx="418.261" cy="844.723" r="1.431"/>
		<circle class="st1" cx="413.739" cy="844.723" r="1.431"/>
		<path class="st1" d="M58.07,47.791c-0.101-0.279-0.321-0.499-0.6-0.6l-13.867-5.017c-2.296-2.45-2.254-6.308,0.137-8.699
			c1.876-1.875,4.927-1.875,6.803,0c1.421,1.421,1.418,3.736-0.006,5.161c-1.057,1.056-2.78,1.053-3.84-0.006
			c-0.77-0.769-0.77-2.022,0-2.792c0.539-0.539,1.416-0.539,1.955,0c0.391,0.391,1.023,0.391,1.414,0
			c0.391-0.391,0.391-1.023,0-1.414c-0.639-0.639-1.488-0.991-2.391-0.991c-0.001,0-0.003,0-0.004,0
			c-0.902,0.001-1.75,0.353-2.388,0.991c-1.549,1.549-1.549,4.07,0,5.62c1.841,1.841,4.832,1.841,6.668,0.006
			c2.204-2.204,2.207-5.788,0.006-7.989c-2.655-2.655-6.976-2.655-9.631,0c-2.213,2.213-2.905,5.38-2.076,8.189
			c-2.81-0.828-5.976-0.137-8.189,2.076c-2.655,2.655-2.655,6.976,0,9.631c1.1,1.1,2.543,1.649,3.989,1.649
			c1.448,0,2.897-0.552,4-1.655c1.836-1.836,1.834-4.828-0.006-6.668c-1.548-1.549-4.07-1.55-5.62,0
			c-0.638,0.638-0.99,1.486-0.991,2.388c-0.001,0.905,0.351,1.755,0.991,2.395c0.391,0.391,1.023,0.391,1.414,0
			c0.391-0.391,0.391-1.023,0-1.414c-0.539-0.539-0.539-1.416,0-1.955c0.77-0.769,2.022-0.77,2.792,0
			c1.06,1.061,1.062,2.783,0.006,3.84c-1.424,1.424-3.739,1.428-5.161,0.006c-1.875-1.875-1.875-4.927,0-6.803
			c2.391-2.392,6.248-2.434,8.7-0.137l5.017,13.867c0.101,0.279,0.321,0.499,0.6,0.6l14.099,5.101
			c0.111,0.04,0.226,0.059,0.34,0.059c0.261,0,0.516-0.102,0.707-0.293c0.274-0.274,0.365-0.683,0.233-1.047L58.07,47.791z
			 M48.912,56.349l-4.215-11.652l11.652,4.215l4.215,11.652L48.912,56.349z"/>
		<path class="st1" d="M560.451,808.346l5.101,14.099c0.101,0.279,0.321,0.499,0.6,0.601l13.867,5.016
			c2.296,2.45,2.255,6.307-0.137,8.699c-0.909,0.909-2.116,1.409-3.4,1.409c-0.001,0-0.002,0-0.002,0
			c-1.284-0.001-2.492-0.501-3.4-1.409c-0.688-0.688-1.066-1.603-1.065-2.577c0.001-0.976,0.381-1.893,1.072-2.583
			c0.511-0.512,1.19-0.793,1.914-0.793c0,0,0.001,0,0.002,0c0.726,0,1.408,0.284,1.923,0.799c0.374,0.374,0.58,0.869,0.58,1.396
			c0,0.526-0.206,1.021-0.58,1.396c-0.539,0.539-1.416,0.539-1.955,0c-0.391-0.391-1.024-0.391-1.415,0
			c-0.391,0.391-0.391,1.023,0,1.414c1.318,1.318,3.464,1.318,4.784,0c0.752-0.751,1.166-1.749,1.166-2.81
			c0-1.061-0.414-2.059-1.165-2.81c-0.892-0.893-2.076-1.384-3.335-1.385c-0.001,0-0.003,0-0.004,0c-1.258,0-2.44,0.489-3.329,1.379
			c-1.068,1.067-1.657,2.486-1.658,3.996c-0.001,1.509,0.586,2.927,1.651,3.992c1.286,1.286,2.995,1.994,4.813,1.995
			c0.001,0,0.002,0,0.003,0c1.818,0,3.528-0.709,4.814-1.995c2.213-2.213,2.905-5.379,2.076-8.188
			c0.765,0.226,1.557,0.339,2.349,0.339c2.115,0,4.23-0.805,5.84-2.415c2.656-2.655,2.656-6.977,0-9.632
			c-1.065-1.065-2.481-1.65-3.988-1.65c-0.001,0-0.003,0-0.004,0c-1.509,0.001-2.929,0.59-3.996,1.657
			c-1.836,1.836-1.833,4.827,0.006,6.668c1.549,1.549,4.07,1.549,5.62,0c1.318-1.319,1.318-3.465,0-4.784
			c-0.391-0.391-1.024-0.391-1.415,0c-0.391,0.391-0.391,1.023,0,1.414c0.539,0.539,0.539,1.417,0,1.956
			c-0.77,0.77-2.021,0.77-2.791,0c-1.06-1.06-1.063-2.783-0.006-3.84c0.69-0.69,1.608-1.071,2.583-1.071c0.001,0,0.001,0,0.002,0
			c0.974,0,1.888,0.378,2.575,1.064c1.875,1.876,1.875,4.928,0,6.804c-2.392,2.39-6.249,2.432-8.699,0.137l-5.017-13.867
			c-0.101-0.279-0.321-0.499-0.6-0.601l-14.099-5.101c-0.365-0.132-0.773-0.04-1.047,0.233
			C560.41,807.574,560.319,807.982,560.451,808.346z M574.71,813.888l4.215,11.651l-11.652-4.216l-4.215-11.651L574.71,813.888z"/>
		<path class="st1" d="M566.152,47.191c-0.279,0.101-0.499,0.321-0.6,0.6l-5.101,14.099c-0.132,0.365-0.041,0.773,0.233,1.047
			c0.191,0.191,0.446,0.293,0.707,0.293c0.114,0,0.229-0.02,0.34-0.059l14.099-5.101c0.279-0.101,0.499-0.321,0.6-0.6l5.017-13.868
			c2.451-2.296,6.308-2.254,8.699,0.138c0.909,0.91,1.41,2.118,1.409,3.403c0,1.284-0.501,2.491-1.409,3.399
			c-0.687,0.687-1.601,1.066-2.575,1.066c0,0-0.001,0-0.002,0c-0.976-0.001-1.893-0.381-2.583-1.071
			c-1.057-1.057-1.054-2.779,0.006-3.84c0.748-0.748,2.043-0.748,2.791,0c0.539,0.539,0.539,1.416,0,1.955
			c-0.391,0.391-0.391,1.023,0,1.414c0.391,0.391,1.023,0.391,1.414,0c0.64-0.64,0.992-1.49,0.991-2.395
			c-0.001-0.902-0.353-1.75-0.991-2.388c-1.502-1.503-4.117-1.503-5.619,0c-1.84,1.84-1.843,4.832-0.006,6.668
			c1.067,1.068,2.487,1.656,3.996,1.657c0.002,0,0.003,0,0.003,0c1.508,0,2.925-0.587,3.989-1.651
			c1.286-1.285,1.994-2.995,1.995-4.812c0.001-1.82-0.707-3.531-1.995-4.818c-2.213-2.213-5.379-2.905-8.189-2.076
			c0.829-2.81,0.137-5.976-2.076-8.189c-2.654-2.654-6.975-2.655-9.631,0c-1.066,1.065-1.652,2.484-1.651,3.993
			c0.001,1.509,0.59,2.929,1.658,3.996c0.889,0.889,2.071,1.378,3.329,1.378c0.001,0,0.002,0,0.004,0
			c1.259-0.001,2.443-0.493,3.335-1.384c1.549-1.549,1.549-4.07,0-5.62c-0.638-0.638-1.486-0.99-2.388-0.991
			c-0.001,0-0.003,0-0.004,0c-0.903,0-1.752,0.352-2.391,0.991c-0.391,0.391-0.391,1.023,0,1.414c0.391,0.391,1.023,0.391,1.414,0
			c0.539-0.539,1.416-0.539,1.955,0c0.77,0.77,0.77,2.022,0,2.792c-1.06,1.061-2.782,1.063-3.839,0.006
			c-0.69-0.69-1.071-1.608-1.072-2.583c0-0.975,0.378-1.89,1.065-2.578c1.875-1.875,4.927-1.876,6.803,0
			c2.391,2.392,2.433,6.25,0.137,8.7L566.152,47.191z M574.71,56.349l-11.652,4.215l4.215-11.652l11.652-4.215L574.71,56.349z"/>
		<path class="st1" d="M61.89,807.066l-14.099,5.101c-0.279,0.102-0.499,0.321-0.6,0.601l-5.016,13.866
			c-2.451,2.297-6.309,2.253-8.7-0.137c-1.875-1.876-1.875-4.928,0-6.804c1.422-1.42,3.737-1.418,5.161,0.007
			c1.057,1.057,1.054,2.779-0.006,3.84c-0.769,0.77-2.022,0.771-2.791,0c-0.539-0.539-0.539-1.417,0-1.956
			c0.39-0.391,0.39-1.023,0-1.414c-0.391-0.391-1.024-0.391-1.415,0c-1.318,1.319-1.318,3.465,0,4.784c1.55,1.549,4.07,1.549,5.62,0
			c1.839-1.841,1.842-4.832,0.005-6.668c-2.203-2.204-5.787-2.207-7.989-0.007c-2.655,2.656-2.655,6.977,0,9.632
			c1.61,1.61,3.725,2.415,5.84,2.415c0.792,0,1.584-0.113,2.349-0.339c-0.828,2.809-0.137,5.976,2.076,8.188
			c1.287,1.287,2.996,1.995,4.815,1.995c0.001,0,0.002,0,0.003,0c1.818-0.001,3.527-0.709,4.812-1.995
			c1.066-1.065,1.652-2.483,1.651-3.992c-0.001-1.51-0.589-2.929-1.657-3.996c-0.889-0.89-2.071-1.379-3.329-1.379
			c-0.001,0-0.002,0-0.004,0c-1.259,0.001-2.444,0.492-3.335,1.385c-0.751,0.751-1.166,1.749-1.166,2.81
			c0,1.06,0.414,2.059,1.166,2.81c1.319,1.318,3.465,1.318,4.784,0c0.39-0.391,0.39-1.023,0-1.414c-0.391-0.391-1.024-0.391-1.415,0
			c-0.538,0.539-1.416,0.539-1.955,0c-0.374-0.374-0.58-0.869-0.58-1.396c0-0.526,0.206-1.022,0.58-1.396
			c0.515-0.515,1.198-0.799,1.923-0.799c0.001,0,0.001,0,0.002,0c0.723,0,1.403,0.281,1.915,0.793
			c0.69,0.69,1.071,1.607,1.071,2.583c0,0.975-0.378,1.89-1.065,2.577c-0.908,0.908-2.115,1.408-3.399,1.409
			c-0.001,0-0.001,0-0.002,0c-1.284,0-2.492-0.5-3.401-1.409c-2.391-2.392-2.433-6.249-0.137-8.699l13.867-5.017
			c0.279-0.102,0.499-0.321,0.6-0.601l5.101-14.099c0.132-0.364,0.041-0.772-0.233-1.047
			C62.662,807.025,62.255,806.934,61.89,807.066z M56.349,821.324l-11.652,4.216l4.215-11.651l11.652-4.216L56.349,821.324z"/>
		<g>
			<polygon class="st1" points="199.493,845.723 24.513,845.723 24.513,24.513 199.493,24.513 199.493,26.513 26.513,26.513 
				26.513,843.723 199.493,843.723 			"/>
		</g>
	</g>
</g>
<rect x="14.173" y="14.173" class="st2" width="595.276" height="841.89"/>
<rect x="120.312" y="73.877" class="st2" width="382.997" height="23.517"/>
<rect x="120.312" y="772.842" class="st2" width="382.997" height="23.517"/>
</svg>
